<?xml version="1.0" encoding="UTF-8"?>
<svg xmlns="http://www.w3.org/2000/svg" xmlns:xlink="http://www.w3.org/1999/xlink" width="50px" height="50px" viewBox="0 0 50 50" version="1.1">
<g id="surface1">
<path style=" stroke:none;fill-rule:nonzero;fill:rgb(37.254902%,80.784314%,99.215686%);fill-opacity:1;" d="M 24.984375 6.371094 C 25.003906 6.371094 25.027344 6.371094 25.050781 6.371094 C 26.417969 6.371094 27.808594 6.621094 29.074219 7.152344 C 29.097656 7.160156 29.121094 7.167969 29.144531 7.179688 C 30.660156 7.8125 32.113281 8.785156 33.175781 10.050781 C 33.207031 10.089844 33.207031 10.089844 33.238281 10.125 C 34.28125 11.316406 35.019531 12.714844 35.472656 14.222656 C 35.480469 14.246094 35.488281 14.269531 35.496094 14.292969 C 35.675781 14.886719 35.785156 15.507812 35.847656 16.125 C 35.855469 16.152344 35.855469 16.175781 35.855469 16.199219 C 35.929688 16.9375 35.933594 17.691406 35.847656 18.425781 C 35.847656 18.449219 35.847656 18.472656 35.839844 18.496094 C 35.667969 20.144531 35.089844 21.746094 34.199219 23.152344 C 34.191406 23.167969 34.179688 23.183594 34.167969 23.199219 C 34.042969 23.394531 33.914062 23.578125 33.777344 23.761719 C 33.765625 23.78125 33.753906 23.800781 33.738281 23.816406 C 33.671875 23.90625 33.605469 23.996094 33.535156 24.078125 C 33.3125 24.347656 33.121094 24.636719 32.933594 24.925781 C 32.871094 25.019531 32.808594 25.117188 32.746094 25.214844 C 32.730469 25.238281 32.714844 25.261719 32.699219 25.285156 C 32.613281 25.421875 32.515625 25.558594 32.417969 25.691406 C 32.285156 25.878906 32.160156 26.070312 32.035156 26.261719 C 31.769531 26.667969 31.5 27.074219 31.226562 27.480469 C 31.210938 27.503906 31.195312 27.527344 31.179688 27.546875 C 31.167969 27.570312 31.152344 27.589844 31.136719 27.613281 C 31.105469 27.660156 31.074219 27.707031 31.042969 27.746094 C 31.027344 27.769531 31.015625 27.792969 31 27.816406 C 30.863281 28.011719 30.730469 28.214844 30.597656 28.410156 C 30.351562 28.785156 30.097656 29.160156 29.847656 29.535156 C 29.699219 29.753906 29.550781 29.976562 29.402344 30.199219 C 29.371094 30.246094 29.339844 30.289062 29.308594 30.332031 C 29.222656 30.464844 29.136719 30.597656 29.050781 30.726562 C 29.003906 30.792969 28.957031 30.863281 28.910156 30.933594 C 28.886719 30.96875 28.863281 31.003906 28.839844 31.035156 C 28.707031 31.238281 28.574219 31.441406 28.433594 31.644531 C 28.292969 31.847656 28.152344 32.054688 28.011719 32.261719 C 27.964844 32.332031 27.921875 32.398438 27.875 32.464844 C 27.707031 32.71875 27.535156 32.972656 27.367188 33.222656 C 26.90625 33.917969 26.402344 34.417969 25.574219 34.621094 C 24.917969 34.738281 24.246094 34.605469 23.691406 34.230469 C 23.566406 34.140625 23.457031 34.035156 23.347656 33.925781 C 23.332031 33.90625 23.308594 33.886719 23.292969 33.863281 C 23.136719 33.703125 23.015625 33.519531 22.890625 33.335938 C 22.816406 33.222656 22.734375 33.109375 22.65625 32.996094 C 22.472656 32.738281 22.292969 32.472656 22.117188 32.210938 C 21.957031 31.972656 21.792969 31.738281 21.628906 31.503906 C 21.472656 31.28125 21.316406 31.058594 21.160156 30.832031 C 21.105469 30.746094 21.042969 30.65625 20.984375 30.570312 C 20.964844 30.546875 20.964844 30.546875 20.949219 30.519531 C 20.925781 30.488281 20.90625 30.457031 20.882812 30.425781 C 20.824219 30.339844 20.769531 30.257812 20.714844 30.175781 C 20.691406 30.144531 20.667969 30.105469 20.644531 30.074219 C 18.855469 27.472656 18.855469 27.472656 18.824219 27.425781 C 18.800781 27.390625 18.777344 27.355469 18.753906 27.324219 C 18.699219 27.246094 18.640625 27.160156 18.585938 27.082031 C 18.449219 26.886719 18.316406 26.691406 18.183594 26.496094 C 18 26.238281 17.820312 25.972656 17.644531 25.710938 C 17.417969 25.386719 17.195312 25.0625 16.972656 24.738281 C 16.933594 24.683594 16.894531 24.628906 16.855469 24.574219 C 16.753906 24.433594 16.652344 24.300781 16.542969 24.167969 C 16.027344 23.574219 15.628906 22.886719 15.25 22.199219 C 15.234375 22.207031 15.222656 22.214844 15.207031 22.222656 C 14.460938 22.574219 13.683594 22.871094 12.875 23.027344 C 12.851562 23.027344 12.824219 23.035156 12.800781 23.039062 C 12.582031 23.074219 12.363281 23.085938 12.144531 23.082031 C 12.125 23.082031 12.105469 23.082031 12.089844 23.082031 C 11.515625 23.082031 11.066406 22.941406 10.644531 22.542969 C 10.363281 22.261719 10.242188 21.933594 10.242188 21.542969 C 10.246094 21.363281 10.269531 21.214844 10.347656 21.050781 C 10.359375 21.027344 10.371094 21.003906 10.378906 20.980469 C 10.636719 20.480469 11.078125 20.078125 11.527344 19.75 C 11.558594 19.722656 11.597656 19.695312 11.632812 19.667969 C 11.847656 19.511719 12.066406 19.363281 12.300781 19.230469 C 12.355469 19.199219 12.402344 19.167969 12.457031 19.136719 C 12.871094 18.890625 13.300781 18.660156 13.738281 18.464844 C 13.753906 18.457031 13.769531 18.449219 13.785156 18.441406 C 13.824219 18.425781 13.863281 18.410156 13.902344 18.402344 C 13.917969 18.410156 13.933594 18.417969 13.949219 18.425781 C 13.933594 18.433594 13.921875 18.441406 13.910156 18.449219 C 13.597656 18.636719 13.292969 18.832031 13 19.050781 C 12.984375 19.058594 12.972656 19.074219 12.957031 19.082031 C 12.75 19.234375 12.558594 19.398438 12.375 19.574219 C 12.355469 19.589844 12.339844 19.605469 12.320312 19.625 C 12.066406 19.863281 11.808594 20.203125 11.792969 20.566406 C 11.792969 20.742188 11.855469 20.871094 11.972656 21.003906 C 12.308594 21.324219 12.730469 21.386719 13.175781 21.378906 C 13.707031 21.363281 14.238281 21.238281 14.75 21.097656 C 14.71875 20.941406 14.675781 20.792969 14.625 20.644531 C 13.863281 18.386719 13.933594 15.902344 15.285156 12.316406 C 15.589844 11.714844 15.964844 11.152344 16.375 10.625 C 16.402344 10.589844 16.402344 10.589844 16.425781 10.558594 C 16.726562 10.175781 17.050781 9.820312 17.394531 9.480469 C 17.410156 9.460938 17.425781 9.441406 17.449219 9.425781 C 17.558594 9.3125 17.675781 9.207031 17.800781 9.097656 C 17.824219 9.074219 17.851562 9.050781 17.878906 9.03125 C 19.394531 7.699219 21.355469 6.761719 24.984375 6.371094 Z M 24.984375 6.371094 "/>
<path style=" stroke:none;fill-rule:nonzero;fill:rgb(99.607843%,81.176471%,14.901961%);fill-opacity:1;" d="M 26.191406 10.089844 C 26.246094 10.097656 26.304688 10.109375 26.363281 10.121094 C 26.597656 10.160156 26.824219 10.222656 27.050781 10.300781 C 27.070312 10.308594 27.089844 10.3125 27.113281 10.320312 C 28.332031 10.730469 29.492188 11.488281 30.277344 12.527344 C 30.285156 12.542969 30.300781 12.558594 30.316406 12.574219 C 30.511719 12.832031 30.695312 13.089844 30.847656 13.375 C 30.867188 13.40625 30.867188 13.40625 30.886719 13.441406 C 31.128906 13.886719 31.324219 14.339844 31.472656 14.824219 C 31.484375 14.855469 31.492188 14.878906 31.503906 14.910156 C 31.582031 15.183594 31.621094 15.464844 31.664062 15.746094 C 31.671875 15.800781 31.679688 15.851562 31.691406 15.90625 C 31.730469 16.152344 31.730469 16.398438 31.730469 16.652344 C 31.730469 16.671875 31.730469 16.691406 31.730469 16.714844 C 31.730469 17.175781 31.703125 17.621094 31.597656 18.074219 C 31.589844 18.113281 31.582031 18.148438 31.574219 18.183594 C 31.511719 18.492188 31.433594 18.785156 31.308594 19.074219 C 31.285156 19.128906 31.261719 19.183594 31.246094 19.234375 C 31.230469 19.261719 31.222656 19.289062 31.214844 19.316406 C 31.199219 19.355469 31.199219 19.355469 31.183594 19.394531 C 31.152344 19.449219 31.152344 19.449219 31.09375 19.464844 C 31.019531 19.472656 30.957031 19.476562 30.882812 19.472656 C 30.449219 19.457031 30.449219 19.457031 30.050781 19.597656 C 30.011719 19.621094 30.011719 19.621094 29.972656 19.644531 C 29.800781 19.746094 29.660156 19.851562 29.542969 20.015625 C 29.527344 20.039062 29.511719 20.066406 29.492188 20.089844 C 29.449219 20.144531 29.449219 20.144531 29.425781 20.199219 C 29.300781 20.160156 29.183594 20.117188 29.0625 20.074219 C 28.8125 19.980469 28.515625 19.996094 28.269531 20.089844 C 27.902344 20.265625 27.707031 20.511719 27.550781 20.875 C 27.511719 21.019531 27.511719 21.175781 27.5 21.324219 C 28.285156 21.324219 29.066406 21.324219 29.875 21.324219 C 29.734375 21.519531 29.734375 21.519531 29.660156 21.582031 C 29.574219 21.652344 29.496094 21.726562 29.417969 21.800781 C 29.089844 22.105469 28.714844 22.355469 28.324219 22.574219 C 28.308594 22.585938 28.289062 22.597656 28.269531 22.605469 C 27.925781 22.800781 27.566406 22.941406 27.199219 23.074219 C 27.179688 23.082031 27.160156 23.089844 27.136719 23.097656 C 26.917969 23.179688 26.695312 23.242188 26.464844 23.292969 C 26.445312 23.296875 26.425781 23.300781 26.402344 23.308594 C 26.324219 23.324219 26.253906 23.335938 26.175781 23.347656 C 26.148438 23.355469 26.148438 23.355469 26.121094 23.359375 C 25.777344 23.417969 25.4375 23.4375 25.085938 23.433594 C 25.003906 23.433594 24.917969 23.433594 24.839844 23.433594 C 24.339844 23.433594 23.859375 23.386719 23.378906 23.261719 C 23.363281 23.253906 23.347656 23.253906 23.332031 23.246094 C 22.984375 23.160156 22.652344 23.042969 22.324219 22.902344 C 22.300781 22.890625 22.277344 22.878906 22.253906 22.871094 C 21.730469 22.640625 21.246094 22.339844 20.800781 21.972656 C 20.785156 21.964844 20.769531 21.949219 20.753906 21.9375 C 20.265625 21.535156 20.265625 21.535156 20.070312 21.300781 C 20.035156 21.265625 20.003906 21.230469 19.972656 21.191406 C 19.660156 20.863281 19.402344 20.484375 19.175781 20.089844 C 19.152344 20.050781 19.125 20.011719 19.097656 19.972656 C 19.097656 19.949219 19.097656 19.925781 19.097656 19.902344 C 19.15625 19.855469 19.214844 19.816406 19.273438 19.777344 C 19.308594 19.753906 19.347656 19.726562 19.386719 19.699219 C 19.402344 19.691406 19.425781 19.675781 19.441406 19.664062 C 19.53125 19.605469 19.621094 19.542969 19.707031 19.480469 C 19.734375 19.460938 19.734375 19.460938 19.761719 19.441406 C 20.066406 19.222656 20.371094 18.996094 20.667969 18.769531 C 20.847656 18.636719 21.019531 18.503906 21.199219 18.375 C 21.175781 18.386719 21.152344 18.398438 21.128906 18.410156 C 20.808594 18.570312 20.488281 18.730469 20.171875 18.886719 C 20.152344 18.902344 20.128906 18.910156 20.105469 18.921875 C 20.066406 18.941406 20.023438 18.964844 19.980469 18.984375 C 19.882812 19.035156 19.785156 19.082031 19.691406 19.128906 C 19.503906 19.222656 19.324219 19.3125 19.140625 19.402344 C 19.121094 19.410156 19.097656 19.417969 19.078125 19.429688 C 19.058594 19.441406 19.039062 19.449219 19.019531 19.457031 C 19.003906 19.464844 18.988281 19.472656 18.96875 19.480469 C 18.925781 19.5 18.925781 19.5 18.875 19.5 C 18.433594 18.582031 18.277344 17.59375 18.269531 16.582031 C 18.269531 16.550781 18.269531 16.519531 18.269531 16.488281 C 18.269531 16.460938 18.269531 16.433594 18.269531 16.402344 C 18.269531 16.375 18.269531 16.347656 18.269531 16.324219 C 18.277344 16.179688 18.300781 16.042969 18.324219 15.902344 C 19.316406 15.902344 20.304688 15.902344 21.324219 15.902344 C 21.289062 15.554688 21.289062 15.554688 21.175781 15.25 C 21.164062 15.230469 21.152344 15.207031 21.144531 15.183594 C 20.988281 14.898438 20.746094 14.746094 20.449219 14.625 C 20.15625 14.542969 19.78125 14.582031 19.511719 14.722656 C 19.449219 14.75 19.449219 14.75 19.402344 14.730469 C 19.34375 14.699219 19.316406 14.660156 19.277344 14.605469 C 19.136719 14.414062 18.988281 14.292969 18.777344 14.175781 C 19.09375 13.136719 19.941406 12.097656 20.800781 11.449219 C 20.816406 11.441406 20.828125 11.429688 20.839844 11.417969 C 21.554688 10.875 22.335938 10.472656 23.199219 10.222656 C 23.242188 10.214844 23.242188 10.214844 23.285156 10.199219 C 23.511719 10.136719 23.742188 10.089844 23.976562 10.058594 C 23.996094 10.050781 24.011719 10.050781 24.035156 10.050781 C 24.738281 9.949219 25.496094 9.933594 26.191406 10.089844 Z M 26.191406 10.089844 "/>
<path style=" stroke:none;fill-rule:nonzero;fill:rgb(0%,41.960784%,43.137255%);fill-opacity:1;" d="M 33.761719 22.8125 C 33.917969 22.910156 34.074219 23.019531 34.199219 23.152344 C 34.066406 23.355469 33.925781 23.5625 33.777344 23.761719 C 33.765625 23.78125 33.753906 23.800781 33.738281 23.816406 C 33.671875 23.90625 33.605469 23.996094 33.535156 24.078125 C 33.3125 24.347656 33.121094 24.636719 32.933594 24.925781 C 32.871094 25.019531 32.808594 25.117188 32.746094 25.214844 C 32.730469 25.238281 32.714844 25.261719 32.699219 25.285156 C 32.613281 25.421875 32.515625 25.558594 32.417969 25.691406 C 32.285156 25.878906 32.160156 26.070312 32.035156 26.261719 C 31.769531 26.667969 31.5 27.074219 31.226562 27.480469 C 31.210938 27.503906 31.195312 27.527344 31.179688 27.546875 C 31.167969 27.570312 31.152344 27.589844 31.136719 27.613281 C 31.105469 27.660156 31.074219 27.707031 31.042969 27.746094 C 31.027344 27.769531 31.015625 27.792969 31 27.816406 C 30.863281 28.011719 30.730469 28.214844 30.597656 28.410156 C 30.351562 28.785156 30.097656 29.160156 29.847656 29.535156 C 29.699219 29.753906 29.550781 29.976562 29.402344 30.199219 C 29.371094 30.246094 29.339844 30.289062 29.308594 30.332031 C 29.222656 30.464844 29.136719 30.597656 29.050781 30.726562 C 29.003906 30.792969 28.957031 30.863281 28.910156 30.933594 C 28.886719 30.96875 28.863281 31.003906 28.839844 31.035156 C 28.707031 31.238281 28.574219 31.441406 28.433594 31.644531 C 28.292969 31.847656 28.152344 32.054688 28.011719 32.261719 C 27.964844 32.332031 27.921875 32.398438 27.875 32.464844 C 27.707031 32.71875 27.535156 32.972656 27.367188 33.222656 C 26.90625 33.917969 26.402344 34.417969 25.574219 34.621094 C 24.917969 34.738281 24.246094 34.605469 23.691406 34.230469 C 23.566406 34.140625 23.457031 34.035156 23.347656 33.925781 C 23.320312 33.894531 23.320312 33.894531 23.292969 33.863281 C 23.136719 33.703125 23.015625 33.519531 22.890625 33.335938 C 22.816406 33.222656 22.734375 33.109375 22.65625 32.996094 C 22.472656 32.738281 22.292969 32.472656 22.117188 32.210938 C 21.957031 31.972656 21.792969 31.738281 21.628906 31.503906 C 21.472656 31.28125 21.316406 31.058594 21.160156 30.832031 C 21.105469 30.746094 21.042969 30.65625 20.984375 30.570312 C 20.972656 30.554688 20.964844 30.535156 20.949219 30.519531 C 20.925781 30.488281 20.90625 30.457031 20.882812 30.425781 C 20.824219 30.339844 20.769531 30.257812 20.714844 30.175781 C 20.691406 30.144531 20.667969 30.105469 20.644531 30.074219 C 18.855469 27.472656 18.855469 27.472656 18.824219 27.425781 C 18.800781 27.390625 18.777344 27.355469 18.753906 27.324219 C 18.699219 27.246094 18.640625 27.160156 18.585938 27.082031 C 18.449219 26.886719 18.316406 26.691406 18.183594 26.496094 C 18 26.238281 17.820312 25.972656 17.644531 25.710938 C 17.402344 25.363281 17.167969 25.019531 16.925781 24.675781 C 16.910156 24.65625 16.902344 24.636719 16.886719 24.621094 C 16.761719 24.441406 16.632812 24.269531 16.488281 24.105469 C 16.449219 24.050781 16.449219 24.050781 16.449219 24 C 16.488281 23.925781 16.535156 23.886719 16.597656 23.832031 C 16.609375 23.824219 16.621094 23.808594 16.636719 23.800781 C 16.738281 23.707031 16.84375 23.621094 16.949219 23.535156 C 17.003906 23.488281 17.0625 23.441406 17.117188 23.394531 C 17.410156 23.132812 17.683594 22.902344 18.097656 22.917969 C 18.371094 22.949219 18.613281 23.089844 18.785156 23.300781 C 18.855469 23.386719 18.90625 23.484375 18.960938 23.582031 C 18.988281 23.628906 19.011719 23.675781 19.039062 23.722656 C 19.054688 23.746094 19.066406 23.773438 19.082031 23.800781 C 19.15625 23.933594 19.230469 24.0625 19.308594 24.195312 C 19.332031 24.238281 19.332031 24.238281 19.355469 24.277344 C 19.476562 24.484375 19.597656 24.691406 19.714844 24.898438 C 19.792969 25.03125 19.871094 25.167969 19.949219 25.300781 C 19.957031 25.316406 19.964844 25.332031 19.976562 25.34375 C 20.019531 25.417969 20.058594 25.488281 20.097656 25.558594 C 20.164062 25.667969 20.230469 25.78125 20.300781 25.890625 C 20.347656 25.972656 20.347656 25.972656 20.347656 26.027344 C 20.859375 25.878906 20.859375 25.878906 21.355469 25.699219 C 21.691406 25.558594 22.03125 25.488281 22.378906 25.621094 C 22.6875 25.753906 22.851562 26.03125 23.003906 26.316406 C 23.015625 26.335938 23.027344 26.355469 23.039062 26.378906 C 23.050781 26.394531 23.058594 26.417969 23.066406 26.433594 C 23.082031 26.449219 23.089844 26.460938 23.097656 26.472656 C 23.203125 26.472656 23.230469 26.433594 23.3125 26.371094 C 23.339844 26.347656 23.371094 26.324219 23.402344 26.300781 C 23.425781 26.285156 23.425781 26.285156 23.449219 26.261719 C 23.558594 26.175781 23.675781 26.097656 23.789062 26.011719 C 23.894531 25.933594 23.996094 25.855469 24.105469 25.777344 C 24.125 25.761719 24.144531 25.746094 24.167969 25.730469 C 24.207031 25.703125 24.246094 25.671875 24.285156 25.644531 C 24.535156 25.457031 24.777344 25.316406 25.097656 25.347656 C 25.371094 25.410156 25.566406 25.582031 25.769531 25.753906 C 25.839844 25.816406 25.90625 25.871094 25.976562 25.925781 C 26.121094 26.042969 26.261719 26.160156 26.402344 26.277344 C 26.613281 26.089844 26.824219 25.902344 27.027344 25.710938 C 27.128906 25.617188 27.234375 25.523438 27.335938 25.433594 C 27.410156 25.367188 27.480469 25.300781 27.550781 25.238281 C 27.660156 25.136719 27.773438 25.035156 27.886719 24.933594 C 27.957031 24.867188 28.027344 24.800781 28.097656 24.738281 C 28.125 24.714844 28.152344 24.691406 28.175781 24.667969 C 28.222656 24.625 28.269531 24.582031 28.316406 24.535156 C 28.578125 24.296875 28.816406 24.136719 29.183594 24.136719 C 29.203125 24.136719 29.222656 24.136719 29.246094 24.136719 C 29.550781 24.144531 29.765625 24.292969 30 24.472656 C 30.035156 24.503906 30.070312 24.527344 30.105469 24.558594 C 30.402344 24.785156 30.402344 24.785156 30.546875 24.902344 C 30.570312 24.917969 30.570312 24.917969 30.589844 24.941406 C 30.628906 24.972656 30.667969 25.003906 30.707031 25.035156 C 30.777344 25.082031 30.777344 25.082031 30.875 25.074219 C 30.921875 25.03125 30.964844 24.988281 31.003906 24.941406 C 31.019531 24.925781 31.027344 24.914062 31.042969 24.902344 C 31.136719 24.792969 31.226562 24.683594 31.316406 24.574219 C 31.410156 24.460938 31.507812 24.355469 31.605469 24.25 C 31.714844 24.136719 31.816406 24.015625 31.917969 23.894531 C 31.941406 23.863281 31.96875 23.832031 31.996094 23.804688 C 32.007812 23.789062 32.019531 23.773438 32.035156 23.757812 C 32.136719 23.644531 32.238281 23.527344 32.339844 23.417969 C 32.402344 23.347656 32.457031 23.277344 32.515625 23.207031 C 32.816406 22.839844 33.296875 22.589844 33.761719 22.8125 Z M 33.761719 22.8125 "/>
<path style=" stroke:none;fill-rule:nonzero;fill:rgb(0%,21.176471%,36.862745%);fill-opacity:1;" d="M 22.847656 13.191406 C 22.902344 13.214844 22.964844 13.234375 23.019531 13.253906 C 23.058594 13.269531 23.097656 13.28125 23.136719 13.292969 C 23.273438 13.339844 23.410156 13.386719 23.546875 13.425781 C 23.71875 13.480469 23.890625 13.535156 24.066406 13.589844 C 24.089844 13.597656 24.121094 13.609375 24.152344 13.621094 C 24.175781 13.628906 24.203125 13.636719 24.230469 13.644531 C 24.308594 13.667969 24.394531 13.695312 24.472656 13.722656 C 24.644531 13.773438 24.816406 13.824219 24.984375 13.878906 C 25.035156 13.898438 25.089844 13.917969 25.144531 13.933594 C 25.296875 13.980469 25.449219 14.027344 25.597656 14.078125 C 25.691406 14.105469 25.785156 14.136719 25.878906 14.167969 C 25.917969 14.175781 25.949219 14.191406 25.988281 14.199219 C 26.035156 14.214844 26.082031 14.230469 26.136719 14.246094 C 26.160156 14.253906 26.191406 14.265625 26.21875 14.277344 C 26.449219 14.347656 26.589844 14.363281 26.808594 14.253906 C 26.828125 14.238281 26.847656 14.230469 26.867188 14.222656 C 26.886719 14.207031 26.90625 14.199219 26.925781 14.1875 C 26.996094 14.152344 27.058594 14.121094 27.121094 14.085938 C 27.167969 14.066406 27.207031 14.042969 27.253906 14.019531 C 27.316406 13.988281 27.378906 13.953125 27.441406 13.917969 C 27.574219 13.847656 27.710938 13.78125 27.847656 13.714844 C 27.863281 13.707031 27.878906 13.699219 27.894531 13.6875 C 28.285156 13.492188 28.679688 13.476562 29.097656 13.597656 C 29.214844 13.667969 29.292969 13.726562 29.347656 13.847656 C 29.410156 14.105469 29.269531 14.355469 29.152344 14.574219 C 28.980469 14.855469 28.714844 15.027344 28.441406 15.191406 C 28.410156 15.210938 28.382812 15.230469 28.355469 15.246094 C 28.308594 15.269531 28.269531 15.300781 28.222656 15.324219 C 28.09375 15.402344 27.964844 15.484375 27.835938 15.566406 C 27.816406 15.574219 27.800781 15.589844 27.78125 15.597656 C 27.746094 15.621094 27.710938 15.644531 27.675781 15.667969 C 27.640625 15.691406 27.601562 15.714844 27.566406 15.738281 C 27.445312 15.808594 27.445312 15.808594 27.363281 15.917969 C 27.355469 15.941406 27.351562 15.964844 27.347656 15.992188 C 27.339844 16.023438 27.332031 16.050781 27.324219 16.082031 C 27.320312 16.105469 27.316406 16.121094 27.3125 16.136719 C 27.300781 16.210938 27.28125 16.28125 27.265625 16.351562 C 27.246094 16.4375 27.230469 16.523438 27.207031 16.613281 C 27.167969 16.796875 27.121094 16.980469 27.074219 17.167969 C 27.019531 17.398438 26.964844 17.628906 26.910156 17.863281 C 26.855469 18.117188 26.796875 18.371094 26.730469 18.621094 C 26.683594 18.808594 26.640625 19.003906 26.597656 19.191406 C 26.484375 19.699219 26.484375 19.699219 26.433594 19.914062 C 26.425781 19.933594 26.425781 19.953125 26.417969 19.972656 C 26.386719 20.113281 26.332031 20.21875 26.230469 20.320312 C 26.121094 20.378906 25.996094 20.367188 25.875 20.347656 C 25.734375 20.277344 25.699219 20.179688 25.648438 20.03125 C 25.613281 19.910156 25.582031 19.785156 25.550781 19.660156 C 25.527344 19.546875 25.496094 19.4375 25.464844 19.328125 C 25.457031 19.308594 25.453125 19.292969 25.449219 19.269531 C 25.4375 19.230469 25.425781 19.195312 25.417969 19.15625 C 25.390625 19.066406 25.363281 18.972656 25.339844 18.878906 C 25.332031 18.863281 25.328125 18.84375 25.324219 18.824219 C 25.277344 18.652344 25.230469 18.480469 25.183594 18.304688 C 25.140625 18.160156 25.097656 18.011719 25.058594 17.863281 C 25.039062 17.792969 25.019531 17.722656 25 17.652344 C 24.992188 17.621094 24.992188 17.621094 24.984375 17.597656 C 24.972656 17.542969 24.957031 17.492188 24.941406 17.441406 C 24.933594 17.410156 24.925781 17.378906 24.917969 17.347656 C 24.902344 17.277344 24.902344 17.277344 24.902344 17.199219 C 24.878906 17.210938 24.855469 17.222656 24.828125 17.230469 C 24.042969 17.5625 24.042969 17.5625 23.652344 17.707031 C 23.625 17.71875 23.597656 17.730469 23.574219 17.738281 C 23.441406 17.785156 23.316406 17.828125 23.179688 17.859375 C 22.824219 17.925781 22.824219 17.925781 22.554688 18.144531 C 22.480469 18.324219 22.457031 18.511719 22.4375 18.699219 C 22.417969 18.863281 22.378906 19.019531 22.347656 19.175781 C 22.339844 19.207031 22.332031 19.234375 22.328125 19.261719 C 22.324219 19.289062 22.316406 19.316406 22.308594 19.34375 C 22.308594 19.363281 22.300781 19.386719 22.296875 19.414062 C 22.269531 19.488281 22.238281 19.527344 22.175781 19.574219 C 22.113281 19.582031 22.113281 19.582031 22.050781 19.550781 C 21.949219 19.402344 21.917969 19.207031 21.878906 19.035156 C 21.847656 18.917969 21.816406 18.800781 21.785156 18.683594 C 21.777344 18.664062 21.773438 18.644531 21.769531 18.625 C 21.742188 18.53125 21.714844 18.441406 21.675781 18.347656 C 21.644531 18.355469 21.644531 18.355469 21.617188 18.355469 C 21.589844 18.363281 21.566406 18.363281 21.542969 18.367188 C 21.503906 18.371094 21.503906 18.371094 21.464844 18.378906 C 21.402344 18.375 21.402344 18.375 21.355469 18.339844 C 21.308594 18.273438 21.308594 18.230469 21.324219 18.152344 C 21.371094 18.085938 21.417969 18.027344 21.472656 17.972656 C 21.464844 17.964844 21.449219 17.949219 21.4375 17.9375 C 21.355469 17.855469 21.273438 17.777344 21.199219 17.683594 C 21.089844 17.558594 20.972656 17.449219 20.855469 17.332031 C 20.839844 17.316406 20.824219 17.300781 20.808594 17.285156 C 20.785156 17.261719 20.785156 17.261719 20.765625 17.242188 C 20.652344 17.121094 20.652344 17.121094 20.644531 17.019531 C 20.652344 16.949219 20.652344 16.949219 20.699219 16.902344 C 20.816406 16.886719 20.902344 16.914062 21.011719 16.957031 C 21.152344 17.007812 21.292969 17.054688 21.433594 17.097656 C 21.503906 17.121094 21.574219 17.140625 21.644531 17.164062 C 21.675781 17.175781 21.675781 17.175781 21.707031 17.183594 C 21.746094 17.199219 21.785156 17.210938 21.828125 17.222656 C 22.019531 17.289062 22.019531 17.289062 22.222656 17.300781 C 22.308594 17.253906 22.308594 17.253906 22.371094 17.175781 C 22.398438 17.152344 22.425781 17.128906 22.449219 17.101562 C 22.464844 17.089844 22.472656 17.074219 22.488281 17.0625 C 22.5625 16.988281 22.644531 16.925781 22.722656 16.863281 C 22.777344 16.816406 22.832031 16.769531 22.886719 16.726562 C 23.269531 16.410156 23.667969 16.125 24.074219 15.847656 C 24.042969 15.777344 24.007812 15.726562 23.949219 15.667969 C 23.933594 15.65625 23.917969 15.640625 23.902344 15.628906 C 23.886719 15.613281 23.871094 15.597656 23.855469 15.582031 C 23.765625 15.488281 23.675781 15.402344 23.589844 15.300781 C 23.496094 15.191406 23.390625 15.089844 23.285156 14.988281 C 23.183594 14.886719 23.082031 14.785156 22.988281 14.675781 C 22.890625 14.558594 22.785156 14.457031 22.675781 14.347656 C 22.550781 14.226562 22.429688 14.105469 22.316406 13.972656 C 22.238281 13.886719 22.160156 13.808594 22.078125 13.730469 C 21.964844 13.621094 21.917969 13.550781 21.914062 13.390625 C 21.917969 13.296875 21.921875 13.238281 21.980469 13.160156 C 22.238281 12.929688 22.558594 13.09375 22.847656 13.191406 Z M 22.847656 13.191406 "/>
<path style=" stroke:none;fill-rule:nonzero;fill:rgb(0%,21.176471%,37.254902%);fill-opacity:1;" d="M 21.175781 18.347656 C 21.191406 18.355469 21.207031 18.367188 21.222656 18.375 C 21.003906 18.546875 20.777344 18.71875 20.550781 18.886719 C 20.503906 18.925781 20.449219 18.960938 20.402344 19 C 19.738281 19.503906 19.042969 19.964844 18.347656 20.425781 C 18.3125 20.449219 18.3125 20.449219 18.273438 20.476562 C 17.828125 20.769531 17.375 21.042969 16.910156 21.308594 C 16.816406 21.363281 16.722656 21.417969 16.628906 21.472656 C 16.449219 21.582031 16.265625 21.683594 16.074219 21.777344 C 16.015625 21.804688 15.957031 21.832031 15.894531 21.863281 C 15.878906 21.871094 15.863281 21.878906 15.847656 21.886719 C 15.738281 21.941406 15.632812 21.996094 15.527344 22.050781 C 15.214844 22.21875 14.902344 22.371094 14.574219 22.5 C 14.542969 22.511719 14.542969 22.511719 14.511719 22.527344 C 13.980469 22.738281 13.441406 22.917969 12.875 23.027344 C 12.851562 23.027344 12.824219 23.035156 12.800781 23.039062 C 12.582031 23.074219 12.363281 23.085938 12.144531 23.082031 C 12.125 23.082031 12.105469 23.082031 12.089844 23.082031 C 11.515625 23.082031 11.066406 22.941406 10.644531 22.542969 C 10.363281 22.261719 10.242188 21.933594 10.242188 21.542969 C 10.246094 21.363281 10.269531 21.214844 10.347656 21.050781 C 10.359375 21.027344 10.371094 21.003906 10.378906 20.980469 C 10.636719 20.480469 11.078125 20.078125 11.527344 19.75 C 11.558594 19.722656 11.597656 19.695312 11.632812 19.667969 C 11.847656 19.511719 12.066406 19.363281 12.300781 19.230469 C 12.355469 19.199219 12.402344 19.167969 12.457031 19.136719 C 12.871094 18.890625 13.300781 18.660156 13.738281 18.464844 C 13.753906 18.457031 13.769531 18.449219 13.785156 18.441406 C 13.824219 18.425781 13.863281 18.410156 13.902344 18.402344 C 13.925781 18.410156 13.925781 18.410156 13.949219 18.425781 C 13.929688 18.4375 13.929688 18.4375 13.910156 18.449219 C 13.597656 18.636719 13.292969 18.832031 13 19.050781 C 12.984375 19.058594 12.972656 19.074219 12.957031 19.082031 C 12.75 19.234375 12.558594 19.398438 12.375 19.574219 C 12.355469 19.589844 12.339844 19.605469 12.320312 19.625 C 12.066406 19.863281 11.808594 20.203125 11.792969 20.566406 C 11.792969 20.742188 11.855469 20.871094 11.972656 21.003906 C 12.308594 21.324219 12.730469 21.386719 13.175781 21.378906 C 14.066406 21.351562 15.097656 21.089844 15.914062 20.738281 C 16.003906 20.699219 16.089844 20.667969 16.183594 20.636719 C 16.308594 20.597656 16.425781 20.558594 16.542969 20.5 C 16.660156 20.449219 16.777344 20.410156 16.894531 20.363281 C 16.910156 20.359375 16.925781 20.355469 16.941406 20.347656 C 16.972656 20.335938 17.007812 20.324219 17.039062 20.3125 C 17.175781 20.261719 17.304688 20.199219 17.4375 20.140625 C 17.574219 20.078125 17.710938 20.019531 17.847656 19.957031 C 18.636719 19.621094 18.636719 19.621094 19.402344 19.25 C 19.476562 19.210938 19.550781 19.175781 19.628906 19.136719 C 19.644531 19.128906 19.660156 19.121094 19.675781 19.113281 C 19.800781 19.050781 19.925781 18.988281 20.050781 18.925781 C 20.144531 18.878906 20.242188 18.832031 20.339844 18.78125 C 20.386719 18.757812 20.433594 18.730469 20.484375 18.707031 C 20.558594 18.671875 20.628906 18.636719 20.699219 18.597656 C 20.722656 18.589844 20.746094 18.578125 20.769531 18.566406 C 20.890625 18.503906 21.011719 18.441406 21.128906 18.371094 C 21.144531 18.363281 21.160156 18.355469 21.175781 18.347656 Z M 21.175781 18.347656 "/>
<path style=" stroke:none;fill-rule:nonzero;fill:rgb(99.607843%,99.607843%,99.607843%);fill-opacity:1;" d="M 30.558594 19.445312 C 30.582031 19.445312 30.582031 19.445312 30.613281 19.445312 C 30.664062 19.445312 30.71875 19.445312 30.769531 19.449219 C 30.808594 19.449219 30.847656 19.449219 30.878906 19.449219 C 30.972656 19.449219 31.058594 19.449219 31.152344 19.449219 C 31.152344 19.464844 31.152344 19.480469 31.152344 19.5 C 31.175781 19.503906 31.199219 19.503906 31.226562 19.503906 C 31.332031 19.519531 31.410156 19.566406 31.496094 19.628906 C 31.511719 19.636719 31.527344 19.644531 31.542969 19.660156 C 31.878906 19.886719 32.058594 20.144531 32.199219 20.527344 C 32.214844 20.519531 32.230469 20.519531 32.25 20.511719 C 32.582031 20.449219 32.871094 20.453125 33.167969 20.628906 C 33.390625 20.777344 33.527344 20.988281 33.597656 21.25 C 33.589844 21.285156 33.582031 21.316406 33.574219 21.347656 C 30.566406 21.339844 30.566406 21.339844 27.5 21.324219 C 27.5 20.925781 27.566406 20.65625 27.832031 20.363281 C 28.074219 20.132812 28.367188 19.988281 28.707031 19.988281 C 28.722656 19.988281 28.742188 19.988281 28.761719 19.988281 C 29.003906 19.996094 29.214844 20.085938 29.425781 20.199219 C 29.433594 20.183594 29.441406 20.164062 29.445312 20.144531 C 29.574219 19.84375 29.871094 19.648438 30.160156 19.523438 C 30.183594 19.515625 30.203125 19.507812 30.222656 19.5 C 30.246094 19.492188 30.269531 19.480469 30.292969 19.472656 C 30.386719 19.449219 30.464844 19.441406 30.558594 19.445312 Z M 30.558594 19.445312 "/>
<path style=" stroke:none;fill-rule:nonzero;fill:rgb(99.607843%,99.607843%,99.215686%);fill-opacity:1;" d="M 18.949219 14.25 C 19.121094 14.386719 19.277344 14.542969 19.402344 14.722656 C 19.503906 14.691406 19.597656 14.65625 19.699219 14.617188 C 19.957031 14.527344 20.324219 14.535156 20.574219 14.652344 C 20.957031 14.839844 21.167969 15.097656 21.300781 15.5 C 21.324219 15.59375 21.324219 15.683594 21.324219 15.777344 C 21.324219 15.800781 21.324219 15.824219 21.324219 15.847656 C 21.324219 15.871094 21.324219 15.871094 21.324219 15.902344 C 20.886719 15.902344 20.457031 15.902344 20.019531 15.902344 C 19.988281 15.902344 19.953125 15.902344 19.917969 15.902344 C 18.808594 15.902344 17.699219 15.894531 16.589844 15.886719 C 16.570312 15.886719 16.550781 15.886719 16.535156 15.886719 C 16.097656 15.882812 15.660156 15.878906 15.222656 15.875 C 15.300781 15.566406 15.417969 15.347656 15.699219 15.175781 C 15.945312 15.042969 16.191406 15.003906 16.464844 15.085938 C 16.519531 15.105469 16.574219 15.121094 16.625 15.152344 C 16.628906 15.136719 16.632812 15.121094 16.636719 15.101562 C 16.746094 14.722656 16.964844 14.40625 17.308594 14.199219 C 17.824219 13.925781 18.457031 13.90625 18.949219 14.25 Z M 18.949219 14.25 "/>
<path style=" stroke:none;fill-rule:nonzero;fill:rgb(0%,29.019608%,29.803922%);fill-opacity:1;" d="M 20.324219 38.5 C 20.503906 38.5 20.6875 38.5 20.875 38.5 C 21.023438 38.910156 21.171875 39.324219 21.324219 39.75 C 21.507812 39.566406 21.675781 39.375 21.839844 39.175781 C 21.882812 39.121094 21.925781 39.066406 21.972656 39.011719 C 21.988281 38.996094 22 38.984375 22.011719 38.96875 C 22.039062 38.941406 22.066406 38.910156 22.089844 38.878906 C 22.152344 38.8125 22.199219 38.75 22.246094 38.671875 C 22.292969 38.589844 22.320312 38.550781 22.402344 38.5 C 22.582031 38.472656 22.769531 38.484375 22.949219 38.5 C 22.933594 38.648438 22.914062 38.789062 22.878906 38.933594 C 22.871094 38.964844 22.871094 38.964844 22.863281 38.992188 C 22.847656 39.058594 22.832031 39.121094 22.816406 39.183594 C 22.800781 39.226562 22.792969 39.269531 22.78125 39.316406 C 22.757812 39.410156 22.734375 39.503906 22.710938 39.59375 C 22.683594 39.714844 22.652344 39.832031 22.621094 39.949219 C 22.597656 40.042969 22.574219 40.132812 22.550781 40.222656 C 22.542969 40.269531 22.53125 40.3125 22.519531 40.355469 C 22.503906 40.417969 22.488281 40.480469 22.472656 40.539062 C 22.464844 40.566406 22.464844 40.566406 22.457031 40.59375 C 22.425781 40.71875 22.425781 40.71875 22.402344 40.777344 C 22.199219 40.777344 22.003906 40.777344 21.800781 40.777344 C 21.816406 40.636719 21.839844 40.511719 21.871094 40.375 C 21.878906 40.339844 21.890625 40.300781 21.902344 40.265625 C 21.914062 40.207031 21.925781 40.152344 21.941406 40.09375 C 21.957031 40.035156 21.972656 39.980469 21.984375 39.925781 C 21.988281 39.910156 21.996094 39.890625 21.996094 39.871094 C 22.007812 39.832031 22.019531 39.792969 22.027344 39.75 C 22.019531 39.742188 22.007812 39.734375 22 39.722656 C 21.789062 39.972656 21.789062 39.972656 21.582031 40.222656 C 21.5625 40.242188 21.542969 40.261719 21.527344 40.285156 C 21.492188 40.328125 21.457031 40.371094 21.425781 40.417969 C 21.378906 40.480469 21.339844 40.527344 21.277344 40.574219 C 21.199219 40.582031 21.199219 40.582031 21.121094 40.582031 C 21.089844 40.582031 21.066406 40.582031 21.035156 40.578125 C 21.015625 40.578125 20.996094 40.574219 20.972656 40.574219 C 20.808594 40.125 20.808594 40.125 20.777344 40.046875 C 20.761719 40.003906 20.746094 39.957031 20.726562 39.914062 C 20.699219 39.839844 20.675781 39.78125 20.675781 39.699219 C 20.660156 39.699219 20.644531 39.699219 20.625 39.699219 C 20.621094 39.730469 20.621094 39.757812 20.613281 39.785156 C 20.601562 39.898438 20.574219 40.003906 20.550781 40.113281 C 20.542969 40.128906 20.539062 40.148438 20.535156 40.167969 C 20.519531 40.230469 20.503906 40.289062 20.488281 40.347656 C 20.472656 40.390625 20.464844 40.433594 20.453125 40.472656 C 20.425781 40.574219 20.402344 40.675781 20.375 40.777344 C 20.167969 40.777344 19.964844 40.777344 19.75 40.777344 C 19.816406 40.480469 19.882812 40.183594 19.957031 39.886719 C 19.964844 39.847656 19.976562 39.808594 19.988281 39.769531 C 20.007812 39.6875 20.027344 39.605469 20.050781 39.523438 C 20.074219 39.417969 20.101562 39.3125 20.128906 39.207031 C 20.144531 39.128906 20.167969 39.042969 20.1875 38.964844 C 20.199219 38.925781 20.207031 38.886719 20.214844 38.847656 C 20.230469 38.792969 20.246094 38.738281 20.257812 38.683594 C 20.265625 38.65625 20.273438 38.625 20.28125 38.59375 C 20.300781 38.527344 20.300781 38.527344 20.324219 38.5 Z M 20.324219 38.5 "/>
<path style=" stroke:none;fill-rule:nonzero;fill:rgb(0%,29.019608%,29.803922%);fill-opacity:1;" d="M 19.527344 38.722656 C 19.585938 38.792969 19.628906 38.871094 19.675781 38.949219 C 19.691406 38.980469 19.707031 39.007812 19.722656 39.035156 C 19.824219 39.339844 19.75 39.691406 19.617188 39.964844 C 19.527344 40.128906 19.40625 40.265625 19.277344 40.402344 C 19.261719 40.414062 19.25 40.425781 19.238281 40.441406 C 18.933594 40.730469 18.496094 40.839844 18.09375 40.835938 C 17.824219 40.828125 17.601562 40.761719 17.402344 40.574219 C 17.386719 40.5625 17.371094 40.550781 17.355469 40.535156 C 17.199219 40.371094 17.144531 40.167969 17.136719 39.941406 C 17.144531 39.753906 17.183594 39.597656 17.25 39.425781 C 17.257812 39.402344 17.265625 39.382812 17.277344 39.359375 C 17.441406 38.980469 17.808594 38.707031 18.175781 38.550781 C 18.625 38.394531 19.152344 38.394531 19.527344 38.722656 Z M 18.027344 39.300781 C 17.871094 39.503906 17.804688 39.691406 17.839844 39.941406 C 17.871094 40.089844 17.957031 40.164062 18.074219 40.25 C 18.257812 40.308594 18.441406 40.285156 18.617188 40.207031 C 18.839844 40.082031 18.96875 39.894531 19.058594 39.660156 C 19.089844 39.488281 19.09375 39.351562 19.003906 39.191406 C 18.941406 39.105469 18.878906 39.058594 18.777344 39.027344 C 18.460938 38.996094 18.238281 39.066406 18.027344 39.300781 Z M 18.027344 39.300781 "/>
<path style=" stroke:none;fill-rule:nonzero;fill:rgb(0%,29.019608%,29.803922%);fill-opacity:1;" d="M 23.507812 38.496094 C 23.53125 38.496094 23.554688 38.496094 23.578125 38.496094 C 23.605469 38.496094 23.628906 38.496094 23.652344 38.496094 C 23.679688 38.496094 23.707031 38.496094 23.730469 38.496094 C 23.785156 38.496094 23.839844 38.496094 23.894531 38.496094 C 23.980469 38.496094 24.0625 38.492188 24.144531 38.492188 C 24.878906 38.488281 24.878906 38.488281 25.125 38.722656 C 25.238281 38.839844 25.277344 38.964844 25.285156 39.128906 C 25.277344 39.433594 25.136719 39.695312 24.925781 39.902344 C 24.621094 40.160156 24.277344 40.207031 23.894531 40.203125 C 23.855469 40.203125 23.855469 40.203125 23.816406 40.203125 C 23.753906 40.199219 23.691406 40.199219 23.625 40.199219 C 23.621094 40.230469 23.621094 40.257812 23.613281 40.285156 C 23.601562 40.394531 23.578125 40.496094 23.550781 40.597656 C 23.535156 40.660156 23.515625 40.714844 23.5 40.777344 C 23.277344 40.777344 23.054688 40.777344 22.824219 40.777344 C 22.890625 40.480469 22.957031 40.183594 23.035156 39.886719 C 23.042969 39.847656 23.050781 39.808594 23.0625 39.769531 C 23.082031 39.6875 23.105469 39.605469 23.121094 39.523438 C 23.152344 39.417969 23.175781 39.3125 23.199219 39.207031 C 23.222656 39.128906 23.242188 39.042969 23.261719 38.964844 C 23.273438 38.925781 23.285156 38.886719 23.292969 38.847656 C 23.304688 38.792969 23.316406 38.738281 23.332031 38.683594 C 23.339844 38.65625 23.347656 38.625 23.355469 38.59375 C 23.386719 38.488281 23.40625 38.496094 23.507812 38.496094 Z M 23.925781 39.027344 C 23.902344 39.121094 23.875 39.214844 23.847656 39.308594 C 23.84375 39.332031 23.835938 39.363281 23.828125 39.386719 C 23.824219 39.414062 23.816406 39.441406 23.808594 39.464844 C 23.800781 39.488281 23.792969 39.511719 23.789062 39.539062 C 23.769531 39.601562 23.769531 39.601562 23.777344 39.675781 C 24.148438 39.699219 24.148438 39.699219 24.472656 39.539062 C 24.566406 39.425781 24.589844 39.347656 24.582031 39.203125 C 24.578125 39.144531 24.578125 39.144531 24.519531 39.089844 C 24.425781 39.035156 24.351562 39.019531 24.246094 39.023438 C 24.21875 39.023438 24.21875 39.023438 24.191406 39.023438 C 24.167969 39.023438 24.152344 39.023438 24.128906 39.023438 C 24.113281 39.023438 24.089844 39.023438 24.070312 39.023438 C 24.019531 39.023438 23.972656 39.027344 23.925781 39.027344 Z M 23.925781 39.027344 "/>
<path style=" stroke:none;fill-rule:nonzero;fill:rgb(0%,29.019608%,29.803922%);fill-opacity:1;" d="M 26.507812 38.480469 C 26.535156 38.480469 26.566406 38.480469 26.597656 38.480469 C 26.730469 38.484375 26.863281 38.488281 27 38.5 C 27.089844 38.933594 27.175781 39.367188 27.261719 39.800781 C 27.277344 39.886719 27.296875 39.976562 27.316406 40.066406 C 27.328125 40.132812 27.339844 40.199219 27.355469 40.269531 C 27.363281 40.316406 27.371094 40.367188 27.382812 40.414062 C 27.386719 40.441406 27.394531 40.472656 27.402344 40.503906 C 27.402344 40.527344 27.410156 40.554688 27.414062 40.582031 C 27.425781 40.652344 27.425781 40.652344 27.425781 40.777344 C 27.203125 40.777344 26.980469 40.777344 26.75 40.777344 C 26.714844 40.628906 26.691406 40.496094 26.675781 40.347656 C 26.164062 40.292969 26.164062 40.292969 25.691406 40.417969 C 25.636719 40.484375 25.605469 40.550781 25.574219 40.632812 C 25.542969 40.691406 25.527344 40.730469 25.472656 40.777344 C 25.257812 40.832031 25.019531 40.800781 24.800781 40.777344 C 24.832031 40.699219 24.859375 40.628906 24.910156 40.558594 C 24.917969 40.542969 24.933594 40.527344 24.945312 40.511719 C 24.957031 40.496094 24.972656 40.476562 24.980469 40.457031 C 25.011719 40.421875 25.035156 40.382812 25.066406 40.34375 C 25.085938 40.316406 25.085938 40.316406 25.105469 40.285156 C 25.175781 40.191406 25.238281 40.09375 25.308594 39.996094 C 25.445312 39.792969 25.589844 39.589844 25.730469 39.386719 C 25.816406 39.257812 25.902344 39.132812 25.988281 39.003906 C 26.011719 38.972656 26.035156 38.941406 26.058594 38.910156 C 26.113281 38.835938 26.152344 38.769531 26.1875 38.691406 C 26.261719 38.542969 26.34375 38.488281 26.507812 38.480469 Z M 26.472656 39.199219 C 26.457031 39.226562 26.441406 39.253906 26.425781 39.277344 C 26.210938 39.621094 26.210938 39.621094 26.097656 39.785156 C 26.074219 39.820312 26.074219 39.820312 26.074219 39.847656 C 26.246094 39.847656 26.421875 39.847656 26.597656 39.847656 C 26.589844 39.691406 26.574219 39.539062 26.550781 39.386719 C 26.546875 39.355469 26.542969 39.324219 26.539062 39.292969 C 26.535156 39.261719 26.535156 39.261719 26.527344 39.222656 C 26.507812 39.214844 26.492188 39.207031 26.472656 39.199219 Z M 26.472656 39.199219 "/>
<path style=" stroke:none;fill-rule:nonzero;fill:rgb(0%,29.019608%,29.803922%);fill-opacity:1;" d="M 29.847656 38.652344 C 29.808594 38.769531 29.742188 38.867188 29.671875 38.972656 C 29.652344 38.996094 29.652344 38.996094 29.636719 39.023438 C 29.605469 39.066406 29.578125 39.105469 29.550781 39.152344 C 29.460938 39.136719 29.386719 39.113281 29.300781 39.074219 C 29.042969 38.972656 28.832031 38.988281 28.574219 39.074219 C 28.558594 39.144531 28.558594 39.144531 28.550781 39.222656 C 28.605469 39.300781 28.671875 39.316406 28.761719 39.339844 C 28.789062 39.347656 28.816406 39.355469 28.84375 39.363281 C 28.871094 39.371094 28.902344 39.378906 28.929688 39.386719 C 29.425781 39.511719 29.425781 39.511719 29.574219 39.722656 C 29.636719 39.847656 29.613281 40.015625 29.582031 40.144531 C 29.488281 40.414062 29.269531 40.609375 29.011719 40.730469 C 28.816406 40.820312 28.609375 40.832031 28.394531 40.832031 C 28.371094 40.832031 28.34375 40.832031 28.316406 40.832031 C 28.042969 40.828125 27.75 40.792969 27.527344 40.625 C 27.503906 40.582031 27.503906 40.582031 27.5 40.527344 C 27.527344 40.472656 27.527344 40.472656 27.5625 40.421875 C 27.582031 40.394531 27.582031 40.394531 27.605469 40.363281 C 27.621094 40.347656 27.632812 40.324219 27.648438 40.308594 C 27.660156 40.285156 27.675781 40.269531 27.691406 40.246094 C 27.730469 40.199219 27.761719 40.148438 27.800781 40.097656 C 27.917969 40.128906 28.019531 40.175781 28.128906 40.222656 C 28.253906 40.273438 28.371094 40.28125 28.511719 40.28125 C 28.527344 40.28125 28.546875 40.285156 28.566406 40.285156 C 28.6875 40.285156 28.769531 40.269531 28.875 40.199219 C 28.898438 40.136719 28.898438 40.136719 28.902344 40.074219 C 28.769531 39.972656 28.640625 39.941406 28.480469 39.902344 C 28.019531 39.785156 28.019531 39.785156 27.886719 39.597656 C 27.808594 39.433594 27.832031 39.253906 27.890625 39.097656 C 28.007812 38.839844 28.175781 38.671875 28.441406 38.5625 C 28.886719 38.398438 29.441406 38.386719 29.847656 38.652344 Z M 29.847656 38.652344 "/>
<path style=" stroke:none;fill-rule:nonzero;fill:rgb(0%,29.019608%,29.803922%);fill-opacity:1;" d="M 31.925781 38.652344 C 31.886719 38.769531 31.816406 38.867188 31.746094 38.972656 C 31.730469 38.996094 31.730469 38.996094 31.710938 39.023438 C 31.683594 39.066406 31.652344 39.105469 31.625 39.152344 C 31.519531 39.125 31.417969 39.085938 31.316406 39.050781 C 31.128906 38.980469 30.933594 38.972656 30.742188 39.050781 C 30.675781 39.089844 30.652344 39.132812 30.625 39.199219 C 30.625 39.222656 30.625 39.25 30.625 39.277344 C 30.753906 39.316406 30.878906 39.351562 31.011719 39.386719 C 31.03125 39.394531 31.050781 39.398438 31.074219 39.402344 C 31.121094 39.417969 31.167969 39.429688 31.214844 39.441406 C 31.394531 39.492188 31.542969 39.558594 31.652344 39.722656 C 31.726562 39.90625 31.699219 40.074219 31.625 40.25 C 31.472656 40.527344 31.230469 40.699219 30.925781 40.789062 C 30.519531 40.890625 30.035156 40.859375 29.664062 40.65625 C 29.636719 40.636719 29.605469 40.621094 29.574219 40.597656 C 29.589844 40.519531 29.617188 40.46875 29.660156 40.402344 C 29.675781 40.386719 29.6875 40.367188 29.699219 40.347656 C 29.714844 40.332031 29.726562 40.3125 29.738281 40.292969 C 29.753906 40.277344 29.765625 40.253906 29.777344 40.238281 C 29.808594 40.191406 29.839844 40.144531 29.875 40.097656 C 29.980469 40.117188 30.050781 40.148438 30.144531 40.199219 C 30.292969 40.269531 30.429688 40.285156 30.589844 40.285156 C 30.617188 40.285156 30.617188 40.285156 30.644531 40.285156 C 30.761719 40.285156 30.847656 40.269531 30.949219 40.199219 C 30.972656 40.121094 30.972656 40.121094 30.972656 40.050781 C 30.839844 39.972656 30.707031 39.941406 30.558594 39.902344 C 30.074219 39.777344 30.074219 39.777344 29.957031 39.582031 C 29.886719 39.394531 29.917969 39.222656 29.988281 39.042969 C 30.132812 38.769531 30.375 38.613281 30.660156 38.519531 C 31.074219 38.402344 31.558594 38.417969 31.925781 38.652344 Z M 31.925781 38.652344 "/>
<path style=" stroke:none;fill-rule:nonzero;fill:rgb(0%,29.019608%,29.803922%);fill-opacity:1;" d="M 17.175781 38.722656 C 17.238281 38.792969 17.238281 38.792969 17.277344 38.847656 C 17.265625 38.941406 17.25 38.949219 17.175781 39.011719 C 17.144531 39.035156 17.113281 39.054688 17.082031 39.074219 C 17.050781 39.097656 17.019531 39.121094 16.988281 39.140625 C 16.972656 39.152344 16.957031 39.160156 16.941406 39.171875 C 16.894531 39.207031 16.847656 39.238281 16.800781 39.277344 C 16.707031 39.238281 16.644531 39.171875 16.574219 39.097656 C 16.441406 39.011719 16.277344 39.035156 16.125 39.050781 C 15.992188 39.082031 15.894531 39.128906 15.800781 39.222656 C 15.785156 39.222656 15.769531 39.222656 15.75 39.222656 C 15.746094 39.238281 15.738281 39.253906 15.730469 39.265625 C 15.699219 39.324219 15.699219 39.324219 15.652344 39.394531 C 15.542969 39.566406 15.496094 39.746094 15.527344 39.949219 C 15.558594 40.066406 15.605469 40.148438 15.714844 40.214844 C 15.886719 40.285156 16.082031 40.273438 16.257812 40.207031 C 16.363281 40.160156 16.457031 40.097656 16.550781 40.027344 C 16.644531 40.066406 16.699219 40.121094 16.769531 40.199219 C 16.785156 40.21875 16.808594 40.238281 16.824219 40.261719 C 16.871094 40.320312 16.890625 40.355469 16.902344 40.425781 C 16.484375 40.746094 16.097656 40.871094 15.574219 40.824219 C 15.332031 40.785156 15.136719 40.6875 14.980469 40.496094 C 14.8125 40.261719 14.800781 40.003906 14.824219 39.722656 C 14.902344 39.328125 15.121094 38.988281 15.449219 38.753906 C 15.957031 38.421875 16.683594 38.28125 17.175781 38.722656 Z M 17.175781 38.722656 "/>
<path style=" stroke:none;fill-rule:nonzero;fill:rgb(0%,29.019608%,29.803922%);fill-opacity:1;" d="M 33.777344 38.5 C 34.003906 38.5 34.238281 38.5 34.472656 38.5 C 34.511719 38.597656 34.542969 38.691406 34.578125 38.792969 C 34.589844 38.824219 34.605469 38.855469 34.613281 38.886719 C 34.628906 38.9375 34.648438 38.984375 34.667969 39.035156 C 34.683594 39.074219 34.683594 39.074219 34.699219 39.121094 C 34.722656 39.195312 34.75 39.273438 34.777344 39.347656 C 34.871094 39.261719 34.957031 39.164062 35.039062 39.066406 C 35.066406 39.035156 35.089844 39.003906 35.117188 38.972656 C 35.128906 38.957031 35.144531 38.941406 35.160156 38.925781 C 35.230469 38.839844 35.296875 38.761719 35.367188 38.679688 C 35.378906 38.664062 35.394531 38.652344 35.40625 38.636719 C 35.496094 38.527344 35.496094 38.527344 35.527344 38.5 C 35.574219 38.496094 35.617188 38.496094 35.664062 38.496094 C 35.691406 38.496094 35.722656 38.496094 35.75 38.496094 C 35.777344 38.496094 35.808594 38.496094 35.839844 38.496094 C 35.871094 38.496094 35.898438 38.496094 35.929688 38.496094 C 36.003906 38.5 36.074219 38.5 36.152344 38.5 C 36.113281 38.597656 36.074219 38.660156 35.996094 38.738281 C 35.917969 38.824219 35.839844 38.914062 35.769531 39.003906 C 35.675781 39.117188 35.582031 39.230469 35.488281 39.339844 C 35.371094 39.46875 35.261719 39.601562 35.152344 39.738281 C 35.097656 39.800781 35.097656 39.800781 35.066406 39.832031 C 34.910156 39.980469 34.886719 40.1875 34.839844 40.386719 C 34.832031 40.425781 34.824219 40.460938 34.816406 40.5 C 34.792969 40.589844 34.769531 40.683594 34.75 40.777344 C 34.527344 40.777344 34.304688 40.777344 34.074219 40.777344 C 34.113281 40.574219 34.152344 40.378906 34.214844 40.183594 C 34.21875 40.164062 34.222656 40.144531 34.230469 40.121094 C 34.234375 40.105469 34.238281 40.085938 34.246094 40.066406 C 34.261719 39.871094 34.167969 39.667969 34.101562 39.488281 C 34.089844 39.449219 34.089844 39.449219 34.074219 39.40625 C 34.042969 39.320312 34.011719 39.238281 33.984375 39.152344 C 33.957031 39.066406 33.925781 38.980469 33.894531 38.894531 C 33.875 38.839844 33.855469 38.789062 33.839844 38.738281 C 33.832031 38.714844 33.824219 38.691406 33.8125 38.664062 C 33.808594 38.644531 33.800781 38.621094 33.792969 38.601562 C 33.777344 38.550781 33.777344 38.550781 33.777344 38.5 Z M 33.777344 38.5 "/>
<path style=" stroke:none;fill-rule:nonzero;fill:rgb(0%,29.411765%,29.803922%);fill-opacity:1;" d="M 32.324219 38.5 C 32.546875 38.5 32.769531 38.5 33 38.5 C 32.917969 38.878906 32.824219 39.253906 32.730469 39.628906 C 32.714844 39.691406 32.699219 39.75 32.683594 39.808594 C 32.648438 39.957031 32.613281 40.105469 32.574219 40.25 C 32.921875 40.25 33.269531 40.25 33.625 40.25 C 33.609375 40.378906 33.59375 40.488281 33.5625 40.613281 C 33.558594 40.636719 33.550781 40.660156 33.542969 40.691406 C 33.527344 40.75 33.527344 40.75 33.5 40.777344 C 33.449219 40.777344 33.394531 40.777344 33.339844 40.777344 C 33.316406 40.777344 33.316406 40.777344 33.285156 40.777344 C 33.230469 40.777344 33.175781 40.777344 33.121094 40.777344 C 33.082031 40.777344 33.042969 40.777344 33.003906 40.777344 C 32.902344 40.777344 32.800781 40.777344 32.699219 40.777344 C 32.597656 40.777344 32.488281 40.777344 32.386719 40.777344 C 32.183594 40.777344 31.980469 40.777344 31.777344 40.777344 C 31.792969 40.636719 31.816406 40.503906 31.847656 40.371094 C 31.855469 40.339844 31.855469 40.339844 31.863281 40.308594 C 31.878906 40.246094 31.894531 40.183594 31.910156 40.121094 C 31.921875 40.074219 31.933594 40.03125 31.941406 39.988281 C 31.964844 39.894531 31.988281 39.800781 32.011719 39.707031 C 32.042969 39.589844 32.074219 39.472656 32.105469 39.355469 C 32.132812 39.238281 32.160156 39.128906 32.191406 39.011719 C 32.195312 38.988281 32.199219 38.96875 32.207031 38.949219 C 32.222656 38.886719 32.238281 38.824219 32.253906 38.761719 C 32.253906 38.746094 32.261719 38.730469 32.265625 38.707031 C 32.285156 38.636719 32.300781 38.566406 32.324219 38.5 Z M 32.324219 38.5 "/>
<path style=" stroke:none;fill-rule:nonzero;fill:rgb(0%,20.392157%,36.862745%);fill-opacity:1;" d="M 26.597656 42.300781 C 26.640625 42.300781 26.683594 42.300781 26.722656 42.300781 C 26.722656 42.589844 26.722656 42.878906 26.722656 43.175781 C 26.90625 43.175781 27.089844 43.175781 27.277344 43.175781 C 27.394531 42.941406 27.507812 42.707031 27.613281 42.464844 C 27.671875 42.328125 27.671875 42.328125 27.699219 42.300781 C 27.742188 42.300781 27.785156 42.300781 27.824219 42.300781 C 27.839844 42.332031 27.839844 42.332031 27.855469 42.363281 C 27.871094 42.394531 27.882812 42.425781 27.894531 42.457031 C 27.902344 42.472656 27.910156 42.488281 27.917969 42.503906 C 27.96875 42.605469 28.019531 42.710938 28.066406 42.816406 C 28.078125 42.839844 28.089844 42.863281 28.101562 42.886719 C 28.125 42.933594 28.144531 42.980469 28.167969 43.027344 C 28.179688 43.046875 28.191406 43.066406 28.199219 43.089844 C 28.214844 43.121094 28.214844 43.121094 28.230469 43.148438 C 28.25 43.199219 28.25 43.199219 28.25 43.277344 C 28.207031 43.277344 28.167969 43.277344 28.125 43.277344 C 28.105469 43.242188 28.089844 43.210938 28.074219 43.175781 C 28.066406 43.160156 28.058594 43.144531 28.046875 43.121094 C 28.027344 43.074219 28.027344 43.074219 28.027344 43.027344 C 27.851562 43.027344 27.675781 43.027344 27.5 43.027344 C 27.484375 43.074219 27.464844 43.121094 27.449219 43.175781 C 27.433594 43.207031 27.417969 43.238281 27.402344 43.277344 C 27.136719 43.277344 26.871094 43.277344 26.597656 43.277344 C 26.597656 42.953125 26.597656 42.628906 26.597656 42.300781 Z M 27.75 42.449219 C 27.714844 42.527344 27.683594 42.597656 27.652344 42.675781 C 27.640625 42.695312 27.628906 42.714844 27.621094 42.738281 C 27.613281 42.757812 27.605469 42.777344 27.59375 42.800781 C 27.582031 42.828125 27.582031 42.828125 27.566406 42.855469 C 27.550781 42.894531 27.550781 42.894531 27.550781 42.925781 C 27.691406 42.925781 27.832031 42.925781 27.972656 42.925781 C 27.910156 42.769531 27.84375 42.613281 27.777344 42.449219 C 27.769531 42.449219 27.757812 42.449219 27.75 42.449219 Z M 27.75 42.449219 "/>
<path style=" stroke:none;fill-rule:nonzero;fill:rgb(98.039216%,99.215686%,99.607843%);fill-opacity:1;" d="M 34.355469 16.554688 C 34.445312 16.613281 34.503906 16.679688 34.550781 16.777344 C 34.566406 16.945312 34.554688 17.0625 34.449219 17.199219 C 34.332031 17.285156 34.238281 17.292969 34.097656 17.285156 C 33.988281 17.269531 33.917969 17.214844 33.847656 17.125 C 33.78125 17.011719 33.785156 16.902344 33.800781 16.777344 C 33.917969 16.550781 34.113281 16.464844 34.355469 16.554688 Z M 34.355469 16.554688 "/>
<path style=" stroke:none;fill-rule:nonzero;fill:rgb(98.431373%,99.215686%,99.215686%);fill-opacity:1;" d="M 29.542969 26.328125 C 29.714844 26.472656 29.714844 26.472656 29.738281 26.589844 C 29.746094 26.726562 29.730469 26.808594 29.644531 26.917969 C 29.550781 27.007812 29.480469 27.027344 29.355469 27.035156 C 29.234375 27.03125 29.167969 27.007812 29.074219 26.925781 C 28.980469 26.789062 28.976562 26.660156 29 26.5 C 29.101562 26.289062 29.339844 26.246094 29.542969 26.328125 Z M 29.542969 26.328125 "/>
<path style=" stroke:none;fill-rule:nonzero;fill:rgb(99.215686%,99.607843%,99.607843%);fill-opacity:1;" d="M 20.347656 9.25 C 20.484375 9.300781 20.558594 9.371094 20.625 9.5 C 20.640625 9.640625 20.632812 9.753906 20.550781 9.875 C 20.457031 9.960938 20.386719 9.980469 20.261719 9.988281 C 20.140625 9.980469 20.066406 9.960938 19.972656 9.875 C 19.886719 9.777344 19.886719 9.683594 19.894531 9.558594 C 19.90625 9.445312 19.957031 9.394531 20.039062 9.316406 C 20.144531 9.246094 20.222656 9.238281 20.347656 9.25 Z M 20.347656 9.25 "/>
<path style=" stroke:none;fill-rule:nonzero;fill:rgb(0%,20.392157%,36.862745%);fill-opacity:1;" d="M 28.402344 42.300781 C 28.441406 42.300781 28.480469 42.300781 28.527344 42.300781 C 28.574219 42.347656 28.613281 42.394531 28.652344 42.453125 C 28.675781 42.484375 28.699219 42.519531 28.722656 42.550781 C 28.738281 42.566406 28.75 42.582031 28.761719 42.597656 C 28.824219 42.683594 28.890625 42.765625 28.957031 42.847656 C 28.996094 42.894531 29.035156 42.949219 29.074219 43 C 29.082031 42.769531 29.089844 42.535156 29.097656 42.300781 C 29.140625 42.300781 29.183594 42.300781 29.222656 42.300781 C 29.222656 42.621094 29.222656 42.941406 29.222656 43.277344 C 29.097656 43.277344 29.097656 43.277344 29.058594 43.242188 C 29.050781 43.230469 29.035156 43.214844 29.027344 43.199219 C 29.011719 43.183594 28.996094 43.164062 28.984375 43.148438 C 28.964844 43.121094 28.964844 43.121094 28.941406 43.09375 C 28.929688 43.074219 28.917969 43.058594 28.902344 43.039062 C 28.859375 42.984375 28.816406 42.929688 28.777344 42.875 C 28.753906 42.851562 28.753906 42.851562 28.738281 42.824219 C 28.675781 42.746094 28.613281 42.660156 28.550781 42.574219 C 28.542969 42.808594 28.535156 43.035156 28.527344 43.277344 C 28.484375 43.277344 28.441406 43.277344 28.402344 43.277344 C 28.402344 42.953125 28.402344 42.628906 28.402344 42.300781 Z M 28.402344 42.300781 "/>
<path style=" stroke:none;fill-rule:nonzero;fill:rgb(0%,20.784314%,36.862745%);fill-opacity:1;" d="M 29.527344 42.300781 C 29.667969 42.328125 29.667969 42.328125 29.722656 42.402344 C 29.738281 42.417969 29.753906 42.4375 29.765625 42.457031 C 29.777344 42.472656 29.792969 42.488281 29.808594 42.507812 C 29.820312 42.527344 29.832031 42.542969 29.847656 42.5625 C 29.890625 42.613281 29.933594 42.667969 29.972656 42.722656 C 29.996094 42.746094 29.996094 42.746094 30.011719 42.773438 C 30.074219 42.855469 30.136719 42.941406 30.199219 43.027344 C 30.207031 42.785156 30.214844 42.546875 30.222656 42.300781 C 30.265625 42.300781 30.308594 42.300781 30.347656 42.300781 C 30.347656 42.621094 30.347656 42.941406 30.347656 43.277344 C 30.222656 43.277344 30.222656 43.277344 30.175781 43.238281 C 30.160156 43.21875 30.148438 43.199219 30.132812 43.183594 C 30.113281 43.160156 30.097656 43.144531 30.082031 43.121094 C 29.996094 43.015625 29.914062 42.910156 29.832031 42.800781 C 29.78125 42.730469 29.730469 42.667969 29.675781 42.597656 C 29.667969 42.824219 29.660156 43.042969 29.652344 43.277344 C 29.609375 43.277344 29.566406 43.277344 29.527344 43.277344 C 29.527344 42.953125 29.527344 42.628906 29.527344 42.300781 Z M 29.527344 42.300781 "/>
<path style=" stroke:none;fill-rule:nonzero;fill:rgb(0%,20.392157%,36.470588%);fill-opacity:1;" d="M 19.230469 42.371094 C 19.347656 42.457031 19.417969 42.558594 19.449219 42.699219 C 19.46875 42.855469 19.425781 42.988281 19.347656 43.125 C 19.242188 43.242188 19.082031 43.300781 18.925781 43.308594 C 18.777344 43.300781 18.667969 43.261719 18.554688 43.167969 C 18.4375 43.023438 18.394531 42.910156 18.402344 42.722656 C 18.425781 42.582031 18.496094 42.476562 18.597656 42.375 C 18.789062 42.261719 19.042969 42.253906 19.230469 42.371094 Z M 18.628906 42.535156 C 18.546875 42.632812 18.523438 42.707031 18.527344 42.839844 C 18.558594 42.96875 18.617188 43.042969 18.714844 43.136719 C 18.832031 43.191406 18.925781 43.195312 19.050781 43.175781 C 19.160156 43.121094 19.238281 43.054688 19.300781 42.949219 C 19.335938 42.800781 19.328125 42.714844 19.25 42.574219 C 19.167969 42.472656 19.101562 42.429688 18.972656 42.402344 C 18.832031 42.402344 18.738281 42.441406 18.628906 42.535156 Z M 18.628906 42.535156 "/>
<path style=" stroke:none;fill-rule:nonzero;fill:rgb(0%,20.392157%,36.862745%);fill-opacity:1;" d="M 31.550781 42.300781 C 31.628906 42.300781 31.707031 42.292969 31.785156 42.292969 C 31.8125 42.292969 31.835938 42.292969 31.863281 42.292969 C 32.011719 42.289062 32.125 42.316406 32.25 42.402344 C 32.332031 42.488281 32.335938 42.578125 32.332031 42.699219 C 32.316406 42.824219 32.238281 42.890625 32.152344 42.972656 C 32.164062 42.996094 32.179688 43.011719 32.191406 43.035156 C 32.222656 43.074219 32.222656 43.074219 32.25 43.113281 C 32.269531 43.136719 32.285156 43.160156 32.308594 43.1875 C 32.347656 43.25 32.347656 43.25 32.347656 43.277344 C 32.28125 43.285156 32.28125 43.285156 32.199219 43.277344 C 32.152344 43.214844 32.152344 43.214844 32.113281 43.136719 C 32.050781 43.046875 32.023438 43.003906 31.914062 42.976562 C 31.832031 42.972656 31.753906 42.96875 31.675781 42.972656 C 31.675781 43.074219 31.675781 43.175781 31.675781 43.277344 C 31.632812 43.277344 31.589844 43.277344 31.550781 43.277344 C 31.550781 42.953125 31.550781 42.628906 31.550781 42.300781 Z M 31.675781 42.425781 C 31.675781 42.574219 31.675781 42.722656 31.675781 42.875 C 31.925781 42.894531 31.925781 42.894531 32.152344 42.800781 C 32.207031 42.714844 32.207031 42.675781 32.199219 42.574219 C 32.179688 42.511719 32.164062 42.484375 32.109375 42.449219 C 32.027344 42.417969 31.945312 42.417969 31.855469 42.421875 C 31.765625 42.425781 31.765625 42.425781 31.675781 42.425781 Z M 31.675781 42.425781 "/>
<path style=" stroke:none;fill-rule:nonzero;fill:rgb(0%,20.392157%,36.862745%);fill-opacity:1;" d="M 22.875 42.300781 C 22.953125 42.300781 23.03125 42.292969 23.113281 42.292969 C 23.136719 42.292969 23.160156 42.292969 23.183594 42.292969 C 23.339844 42.289062 23.449219 42.316406 23.574219 42.402344 C 23.660156 42.488281 23.660156 42.578125 23.660156 42.699219 C 23.640625 42.824219 23.558594 42.890625 23.472656 42.972656 C 23.488281 42.996094 23.503906 43.011719 23.519531 43.035156 C 23.546875 43.074219 23.546875 43.074219 23.574219 43.113281 C 23.59375 43.136719 23.613281 43.160156 23.628906 43.1875 C 23.675781 43.25 23.675781 43.25 23.675781 43.277344 C 23.605469 43.285156 23.605469 43.285156 23.527344 43.277344 C 23.480469 43.214844 23.480469 43.214844 23.433594 43.136719 C 23.375 43.046875 23.347656 43.003906 23.238281 42.976562 C 23.160156 42.972656 23.082031 42.96875 23 42.972656 C 23 43.074219 23 43.175781 23 43.277344 C 22.957031 43.277344 22.917969 43.277344 22.875 43.277344 C 22.875 42.953125 22.875 42.628906 22.875 42.300781 Z M 23 42.425781 C 23 42.574219 23 42.722656 23 42.875 C 23.25 42.894531 23.25 42.894531 23.472656 42.800781 C 23.535156 42.714844 23.535156 42.675781 23.527344 42.574219 C 23.503906 42.511719 23.488281 42.484375 23.433594 42.449219 C 23.351562 42.417969 23.269531 42.417969 23.183594 42.421875 C 23.089844 42.425781 23.089844 42.425781 23 42.425781 Z M 23 42.425781 "/>
<path style=" stroke:none;fill-rule:nonzero;fill:rgb(0%,20.784314%,36.470588%);fill-opacity:1;" d="M 20.75 42.300781 C 20.832031 42.300781 20.910156 42.296875 20.988281 42.292969 C 21.027344 42.292969 21.027344 42.292969 21.066406 42.292969 C 21.230469 42.292969 21.335938 42.316406 21.457031 42.429688 C 21.511719 42.519531 21.527344 42.597656 21.527344 42.699219 C 21.488281 42.816406 21.457031 42.886719 21.347656 42.949219 C 21.386719 43.050781 21.433594 43.128906 21.5 43.214844 C 21.527344 43.25 21.527344 43.25 21.527344 43.277344 C 21.457031 43.285156 21.457031 43.285156 21.375 43.277344 C 21.324219 43.214844 21.324219 43.214844 21.285156 43.136719 C 21.214844 43.027344 21.214844 43.027344 21.097656 42.976562 C 21.003906 42.96875 21.003906 42.96875 20.875 42.972656 C 20.875 43.074219 20.875 43.175781 20.875 43.277344 C 20.832031 43.277344 20.792969 43.277344 20.75 43.277344 C 20.75 42.953125 20.75 42.628906 20.75 42.300781 Z M 20.875 42.425781 C 20.875 42.574219 20.875 42.722656 20.875 42.875 C 20.949219 42.878906 20.949219 42.878906 21.027344 42.878906 C 21.074219 42.878906 21.074219 42.878906 21.117188 42.882812 C 21.230469 42.871094 21.292969 42.832031 21.375 42.75 C 21.398438 42.675781 21.402344 42.636719 21.382812 42.558594 C 21.34375 42.488281 21.320312 42.464844 21.25 42.425781 C 21.183594 42.417969 21.121094 42.417969 21.058594 42.417969 C 20.964844 42.421875 20.964844 42.421875 20.875 42.425781 Z M 20.875 42.425781 "/>
<path style=" stroke:none;fill-rule:nonzero;fill:rgb(0%,20.784314%,36.862745%);fill-opacity:1;" d="M 30.625 42.300781 C 30.855469 42.300781 31.089844 42.300781 31.324219 42.300781 C 31.324219 42.339844 31.324219 42.382812 31.324219 42.425781 C 31.136719 42.425781 30.945312 42.425781 30.75 42.425781 C 30.75 42.523438 30.75 42.621094 30.75 42.722656 C 30.914062 42.722656 31.082031 42.722656 31.25 42.722656 C 31.25 42.765625 31.25 42.808594 31.25 42.847656 C 31.085938 42.847656 30.917969 42.847656 30.75 42.847656 C 30.75 42.957031 30.75 43.066406 30.75 43.175781 C 30.941406 43.175781 31.128906 43.175781 31.324219 43.175781 C 31.324219 43.207031 31.324219 43.238281 31.324219 43.277344 C 31.09375 43.277344 30.863281 43.277344 30.625 43.277344 C 30.625 42.953125 30.625 42.628906 30.625 42.300781 Z M 30.625 42.300781 "/>
<path style=" stroke:none;fill-rule:nonzero;fill:rgb(0%,20.392157%,36.862745%);fill-opacity:1;" d="M 25.625 42.300781 C 25.703125 42.300781 25.785156 42.296875 25.863281 42.292969 C 25.886719 42.292969 25.910156 42.292969 25.9375 42.292969 C 26.105469 42.292969 26.226562 42.316406 26.363281 42.425781 C 26.417969 42.542969 26.421875 42.648438 26.402344 42.777344 C 26.351562 42.871094 26.277344 42.9375 26.175781 42.972656 C 26.101562 42.980469 26.027344 42.980469 25.957031 42.980469 C 25.933594 42.980469 25.917969 42.980469 25.894531 42.976562 C 25.847656 42.976562 25.800781 42.976562 25.75 42.972656 C 25.75 43.074219 25.75 43.175781 25.75 43.277344 C 25.707031 43.277344 25.667969 43.277344 25.625 43.277344 C 25.625 42.953125 25.625 42.628906 25.625 42.300781 Z M 25.75 42.425781 C 25.75 42.574219 25.75 42.722656 25.75 42.875 C 26 42.894531 26 42.894531 26.222656 42.800781 C 26.285156 42.707031 26.289062 42.660156 26.277344 42.550781 C 26.222656 42.480469 26.1875 42.433594 26.101562 42.414062 C 26.050781 42.410156 25.996094 42.414062 25.941406 42.417969 C 25.847656 42.421875 25.847656 42.421875 25.75 42.425781 Z M 25.75 42.425781 "/>
<path style=" stroke:none;fill-rule:nonzero;fill:rgb(0%,20.784314%,36.862745%);fill-opacity:1;" d="M 24.300781 42.300781 C 24.378906 42.300781 24.457031 42.296875 24.542969 42.292969 C 24.578125 42.292969 24.578125 42.292969 24.613281 42.292969 C 24.777344 42.292969 24.886719 42.316406 25.007812 42.429688 C 25.058594 42.519531 25.082031 42.597656 25.074219 42.699219 C 25.046875 42.808594 25.015625 42.863281 24.933594 42.933594 C 24.785156 43.011719 24.589844 42.980469 24.425781 42.972656 C 24.425781 43.074219 24.425781 43.175781 24.425781 43.277344 C 24.382812 43.277344 24.339844 43.277344 24.300781 43.277344 C 24.300781 42.953125 24.300781 42.628906 24.300781 42.300781 Z M 24.425781 42.425781 C 24.425781 42.574219 24.425781 42.722656 24.425781 42.875 C 24.472656 42.878906 24.519531 42.878906 24.566406 42.878906 C 24.59375 42.878906 24.621094 42.878906 24.644531 42.878906 C 24.746094 42.871094 24.816406 42.851562 24.894531 42.792969 C 24.933594 42.738281 24.945312 42.695312 24.949219 42.625 C 24.933594 42.550781 24.910156 42.511719 24.859375 42.457031 C 24.777344 42.410156 24.699219 42.417969 24.605469 42.417969 C 24.515625 42.421875 24.515625 42.421875 24.425781 42.425781 Z M 24.425781 42.425781 "/>
<path style=" stroke:none;fill-rule:nonzero;fill:rgb(0%,20.392157%,37.254902%);fill-opacity:1;" d="M 19.652344 42.300781 C 19.691406 42.300781 19.730469 42.300781 19.777344 42.300781 C 19.777344 42.320312 19.777344 42.339844 19.777344 42.363281 C 19.777344 42.457031 19.78125 42.550781 19.785156 42.644531 C 19.785156 42.675781 19.785156 42.707031 19.785156 42.742188 C 19.785156 42.773438 19.789062 42.804688 19.789062 42.839844 C 19.792969 42.863281 19.792969 42.894531 19.792969 42.925781 C 19.800781 42.996094 19.808594 43.039062 19.847656 43.097656 C 19.9375 43.167969 20.042969 43.160156 20.152344 43.152344 C 20.214844 43.128906 20.238281 43.113281 20.277344 43.058594 C 20.308594 42.980469 20.308594 42.917969 20.308594 42.839844 C 20.308594 42.808594 20.3125 42.777344 20.3125 42.742188 C 20.316406 42.707031 20.316406 42.675781 20.316406 42.644531 C 20.316406 42.613281 20.316406 42.578125 20.316406 42.542969 C 20.320312 42.464844 20.324219 42.378906 20.324219 42.300781 C 20.367188 42.300781 20.410156 42.300781 20.449219 42.300781 C 20.449219 42.402344 20.453125 42.503906 20.457031 42.601562 C 20.457031 42.636719 20.457031 42.667969 20.457031 42.703125 C 20.457031 42.753906 20.457031 42.800781 20.457031 42.851562 C 20.457031 42.878906 20.457031 42.910156 20.457031 42.941406 C 20.445312 43.066406 20.402344 43.144531 20.316406 43.230469 C 20.199219 43.308594 20.085938 43.316406 19.949219 43.300781 C 19.820312 43.261719 19.75 43.214844 19.675781 43.097656 C 19.644531 43.011719 19.644531 42.949219 19.648438 42.859375 C 19.648438 42.824219 19.648438 42.792969 19.648438 42.761719 C 19.648438 42.726562 19.648438 42.691406 19.648438 42.660156 C 19.648438 42.621094 19.648438 42.589844 19.648438 42.554688 C 19.648438 42.46875 19.652344 42.386719 19.652344 42.300781 Z M 19.652344 42.300781 "/>
<path style=" stroke:none;fill-rule:nonzero;fill:rgb(0%,20.392157%,36.862745%);fill-opacity:1;" d="M 17.527344 42.300781 C 17.582031 42.285156 17.582031 42.285156 17.652344 42.300781 C 17.703125 42.359375 17.738281 42.425781 17.777344 42.496094 C 17.800781 42.53125 17.820312 42.566406 17.839844 42.605469 C 17.851562 42.621094 17.863281 42.636719 17.871094 42.652344 C 17.902344 42.699219 17.933594 42.738281 17.972656 42.777344 C 17.984375 42.761719 17.992188 42.746094 18 42.730469 C 18.039062 42.667969 18.078125 42.601562 18.117188 42.535156 C 18.128906 42.515625 18.144531 42.492188 18.160156 42.46875 C 18.167969 42.449219 18.183594 42.425781 18.199219 42.402344 C 18.207031 42.386719 18.222656 42.363281 18.230469 42.34375 C 18.277344 42.300781 18.277344 42.300781 18.339844 42.292969 C 18.363281 42.292969 18.378906 42.296875 18.402344 42.300781 C 18.363281 42.433594 18.300781 42.539062 18.222656 42.652344 C 18.207031 42.683594 18.207031 42.683594 18.191406 42.707031 C 18.144531 42.78125 18.097656 42.855469 18.050781 42.925781 C 18.042969 42.984375 18.035156 43.042969 18.035156 43.105469 C 18.035156 43.136719 18.03125 43.167969 18.027344 43.199219 C 18.027344 43.222656 18.027344 43.25 18.027344 43.277344 C 17.984375 43.277344 17.941406 43.277344 17.902344 43.277344 C 17.902344 43.253906 17.902344 43.238281 17.90625 43.214844 C 17.910156 42.910156 17.753906 42.699219 17.582031 42.453125 C 17.550781 42.402344 17.535156 42.359375 17.527344 42.300781 Z M 17.527344 42.300781 "/>
<path style=" stroke:none;fill-rule:nonzero;fill:rgb(0%,20.392157%,36.862745%);fill-opacity:1;" d="M 21.925781 42.300781 C 22.199219 42.300781 22.46875 42.300781 22.75 42.300781 C 22.75 42.339844 22.75 42.382812 22.75 42.425781 C 22.636719 42.425781 22.519531 42.425781 22.402344 42.425781 C 22.402344 42.707031 22.402344 42.988281 22.402344 43.277344 C 22.359375 43.277344 22.316406 43.277344 22.277344 43.277344 C 22.277344 42.996094 22.277344 42.714844 22.277344 42.425781 C 22.167969 42.425781 22.058594 42.425781 21.949219 42.425781 C 21.941406 42.382812 21.933594 42.339844 21.925781 42.300781 Z M 21.925781 42.300781 "/>
<path style=" stroke:none;fill-rule:nonzero;fill:rgb(96.862745%,98.823529%,99.607843%);fill-opacity:1;" d="M 32.300781 12.074219 C 32.386719 12.152344 32.417969 12.199219 32.441406 12.3125 C 32.417969 12.425781 32.386719 12.472656 32.300781 12.550781 C 32.230469 12.574219 32.175781 12.582031 32.097656 12.574219 C 31.964844 12.503906 31.964844 12.503906 31.925781 12.425781 C 31.914062 12.347656 31.910156 12.277344 31.925781 12.199219 C 32.035156 12.058594 32.128906 12.019531 32.300781 12.074219 Z M 32.300781 12.074219 "/>
<path style=" stroke:none;fill-rule:nonzero;fill:rgb(98.431373%,99.215686%,99.607843%);fill-opacity:1;" d="M 21.378906 24.355469 C 21.460938 24.386719 21.5 24.425781 21.550781 24.5 C 21.566406 24.570312 21.566406 24.628906 21.550781 24.699219 C 21.476562 24.792969 21.421875 24.84375 21.308594 24.859375 C 21.222656 24.847656 21.167969 24.828125 21.105469 24.769531 C 21.054688 24.691406 21.054688 24.621094 21.058594 24.535156 C 21.074219 24.472656 21.089844 24.441406 21.136719 24.394531 C 21.230469 24.347656 21.277344 24.335938 21.378906 24.355469 Z M 21.378906 24.355469 "/>
<path style=" stroke:none;fill-rule:nonzero;fill:rgb(98.039216%,98.823529%,98.823529%);fill-opacity:1;" d="M 24.902344 30.472656 C 24.976562 30.523438 24.976562 30.523438 25.027344 30.597656 C 25.050781 30.71875 25.042969 30.800781 24.976562 30.902344 C 24.871094 30.964844 24.792969 30.976562 24.675781 30.949219 C 24.597656 30.902344 24.597656 30.902344 24.550781 30.824219 C 24.523438 30.707031 24.535156 30.628906 24.597656 30.523438 C 24.699219 30.457031 24.78125 30.449219 24.902344 30.472656 Z M 24.902344 30.472656 "/>
<path style=" stroke:none;fill-rule:nonzero;fill:rgb(98.823529%,99.607843%,99.607843%);fill-opacity:1;" d="M 16.246094 17.613281 C 16.339844 17.632812 16.375 17.671875 16.425781 17.75 C 16.441406 17.820312 16.441406 17.878906 16.425781 17.949219 C 16.378906 18.019531 16.347656 18.0625 16.277344 18.097656 C 16.167969 18.109375 16.117188 18.113281 16.027344 18.050781 C 15.957031 17.980469 15.949219 17.960938 15.941406 17.855469 C 15.941406 17.769531 15.949219 17.75 15.996094 17.675781 C 16.089844 17.617188 16.140625 17.605469 16.246094 17.613281 Z M 16.246094 17.613281 "/>
<path style=" stroke:none;fill-rule:nonzero;fill:rgb(0%,20.784314%,36.862745%);fill-opacity:1;" d="M 23.875 42.300781 C 23.917969 42.300781 23.957031 42.300781 24 42.300781 C 24 42.621094 24 42.941406 24 43.277344 C 23.957031 43.277344 23.917969 43.277344 23.875 43.277344 C 23.875 42.953125 23.875 42.628906 23.875 42.300781 Z M 23.875 42.300781 "/>
<path style=" stroke:none;fill-rule:nonzero;fill:rgb(25.490196%,34.117647%,31.372549%);fill-opacity:1;" d="M 21.175781 18.347656 C 21.191406 18.355469 21.207031 18.367188 21.222656 18.375 C 21.167969 18.417969 21.109375 18.457031 21.050781 18.5 C 21.027344 18.484375 21 18.464844 20.972656 18.449219 C 21.007812 18.433594 21.039062 18.417969 21.074219 18.398438 C 21.089844 18.386719 21.105469 18.378906 21.128906 18.371094 C 21.144531 18.363281 21.160156 18.355469 21.175781 18.347656 Z M 21.175781 18.347656 "/>
</g>
</svg>
