<?xml version="1.0" encoding="utf-8"?>
<!-- Generator: Adobe Illustrator 27.5.0, SVG Export Plug-In . SVG Version: 6.00 Build 0)  -->
<svg version="1.1" xmlns="http://www.w3.org/2000/svg" xmlns:xlink="http://www.w3.org/1999/xlink" x="0px" y="0px"
	 viewBox="0 0 2200 2200" style="enable-background:new 0 0 2200 2200;" xml:space="preserve">
<g id="Background">
	<rect style="fill:#FFFFFF;" width="2200" height="2200"/>
</g>
<g id="Objects">
	<g>
		<path style="fill:#1176FF;" d="M1940,1100c0,49.84-4.34,98.66-12.66,146.11C1858.19,1640.38,1514.08,1940,1100,1940
			c-12.72,0-25.37-0.28-37.95-0.84C615.74,1919.31,260,1551.2,260,1100c0-463.92,376.08-840,840-840S1940,636.08,1940,1100z"/>
		<path style="fill:#1052E5;" d="M1927.34,1246.11C1858.19,1640.38,1514.08,1940,1100,1940c-12.72,0-25.37-0.28-37.95-0.84
			c-187.06-187.1-341.85-342.01-343.06-343.4c-24.36-21.09-37.6-53.25-33.93-86.61c8.15-74.21,31.67-148.08,85.43-181.54
			c99.07-61.65,197.41-87.92,197.41-87.92c3.47-10.78,7.36-46.46,9.4-82.98c-12.55-13.03-24.98-26.63-38.09-39.52
			c-21.18-20.82-26.42-49.21-32.96-84.96c-4.68-2.08-7.35-6.1-9.76-9.78c-0.02-0.03-0.04-0.07-0.07-0.11
			c-4.75-2.06-7.44-6.12-9.87-9.83c-0.02-0.03-0.04-0.07-0.07-0.11c-4.75-2.06-7.44-6.12-9.87-9.82c-2.96-4.54-4.13-9.97-5.23-15.27
			c-3.99-19.07-7.98-38.13-11.96-57.19c-3-14.32-6.01-28.99-3.98-43.48c0.98-6.85,3.41-14.03,9.04-18.06
			c5.62-4.03,15.02-3.06,17.84,3.27c0,0-9.12-89.73-9.12-82.18c-7.62-8.46-13.65-26.88-11.13-41.12
			c2.52-14.23,7.05-28.08,9.31-42.35c2.46-15.68,2.21-31.85,6.71-47.07c6.34-21.45,21.51-39.03,36.95-55.22
			c10.94-11.46,22.25-22.6,34.58-32.53c24.71-19.86,54.16-34.8,85.67-38.33c10.11-1.13,20.31-1.08,30.48-1.03
			c11.4,0.06,22.82,0.11,34.23,0.17c11.41-0.06,22.83-0.11,34.23-0.17c10.17-0.05,20.37-0.1,30.48,1.03
			c31.51,3.53,60.96,18.47,85.67,38.33c10.77,8.67,20.75,18.26,30.39,28.19C1282.78,601.51,1638.99,957.72,1927.34,1246.11z"/>
		<path style="fill:#FFFFFF;" d="M1453.46,1612.677C1391.297,1638.104,1279.94,1668,1100,1668s-291.297-29.896-353.46-55.323
			c-41.326-16.903-66.356-59.143-61.483-103.529c8.152-74.208,31.676-148.077,85.437-181.534
			c99.069-61.653,197.409-87.922,197.409-87.922c3.465-10.783,7.359-46.458,9.398-82.984
			c-12.547-13.033-24.982-26.633-38.096-39.521c-24.966-24.536-27.775-59.605-36.687-104.841
			c-16.377,4.655-21.557-3.141-25.905-9.771c-2.963-4.533-4.129-9.965-5.238-15.268c-3.991-19.064-7.974-38.128-11.957-57.192
			c-2.995-14.32-6.007-28.989-3.975-43.479c0.971-6.849,3.408-14.029,9.034-18.06c5.626-4.023,15.025-3.052,17.842,3.27
			c0,0-9.123-89.727-9.123-82.174c-7.618-8.459-13.649-26.884-11.123-41.124c2.518-14.231,7.043-28.082,9.301-42.354
			c2.469-15.672,2.21-31.846,6.711-47.065c6.347-21.452,21.517-39.035,36.954-55.217c10.937-11.463,22.246-22.602,34.583-32.534
			c24.707-19.858,54.157-34.801,85.663-38.331c10.111-1.125,20.311-1.077,30.478-1.028c11.406,0.057,22.82,0.113,34.234,0.17
			c11.414-0.057,22.828-0.113,34.234-0.17c10.167-0.049,20.367-0.097,30.478,1.028c31.506,3.53,60.957,18.473,85.663,38.331
			c12.337,9.933,23.646,21.072,34.583,32.534c15.438,16.182,30.608,33.765,36.954,55.217c4.501,15.219,4.242,31.393,6.711,47.065
			c2.259,14.272,6.784,28.123,9.301,42.354c2.526,14.239-3.505,32.664-11.123,41.124c0-7.553-9.123,82.174-9.123,82.174
			c2.817-6.322,12.216-7.294,17.842-3.27c5.626,4.031,8.063,11.212,9.034,18.06c2.032,14.49-0.979,29.159-3.975,43.479
			c-3.983,19.064-7.966,38.128-11.957,57.192c-1.109,5.302-2.275,10.734-5.238,15.268c-4.347,6.63-9.528,14.426-25.905,9.771
			c-8.913,45.236-11.722,80.304-36.687,104.841c-13.114,12.887-25.548,26.487-38.096,39.521c2.04,36.526,5.934,72.201,9.398,82.984
			c0,0,98.34,26.269,197.409,87.922c53.76,33.457,77.285,107.326,85.437,181.534
			C1519.816,1553.534,1494.786,1595.775,1453.46,1612.677z"/>
	</g>
</g>
</svg>
